<svg xmlns="http://www.w3.org/2000/svg" viewBox="-2210.859 -495 192.854 192.854">
  <defs>
    <style>
      .cls-1 {
        fill: #fff;
      }

      .cls-2, .cls-4 {
        fill: none;
      }

      .cls-2 {
        stroke: #95989a;
        opacity: 0;
      }

      .cls-3 {
        stroke: none;
      }
    </style>
  </defs>
  <g id="Group_54" data-name="Group 54" transform="translate(-2210.859 -495)">
    <path id="Path_75" data-name="Path 75" class="cls-1" d="M148.507,36.963,120.166.91A2.432,2.432,0,0,0,118.274,0H30.741A2.379,2.379,0,0,0,28.85.91L.509,36.963a2.413,2.413,0,0,0,.073,3.056l72.107,84.986a2.406,2.406,0,0,0,1.855.837,2.533,2.533,0,0,0,1.855-.837l72.034-84.986a2.413,2.413,0,0,0,.073-3.056ZM114.854,4.839,104.413,33.616,79.747,4.839h35.108Zm-14.7,31.215h-51.3L74.508,6.148ZM69.269,4.839,44.6,33.616,34.161,4.839ZM29.941,7.313l10.4,28.7H7.385Zm-22.3,33.58H42.092l25.576,70.761Zm66.868,75.454L47.222,40.892h54.572Zm6.84-4.693L106.96,40.892h34.453Zm27.322-75.6,10.4-28.7,22.556,28.7Zm0,0" transform="translate(21.697 33.749)"/>
    <g id="Rectangle_39" data-name="Rectangle 39" class="cls-2" transform="translate(0 0)">
      <rect class="cls-3" width="192.854" height="192.854"/>
      <rect class="cls-4" x="0.5" y="0.5" width="191.854" height="191.854"/>
    </g>
  </g>
</svg>
