<svg xmlns="http://www.w3.org/2000/svg" viewBox="-1586.494 -495 192.854 192.854">
  <defs>
    <style>
      .cls-1 {
        fill: #fff;
      }

      .cls-2, .cls-4 {
        fill: none;
      }

      .cls-2 {
        stroke: #95989a;
        opacity: 0;
      }

      .cls-3 {
        stroke: none;
      }
    </style>
  </defs>
  <g id="Group_55" data-name="Group 55" transform="translate(-1586.494 -495)">
    <g id="Group_10" data-name="Group 10" transform="translate(16.875 33.749)">
      <path id="Path_63" data-name="Path 63" class="cls-1" d="M145.265,0H13.53A13.567,13.567,0,0,0,0,13.53v98.782a13.542,13.542,0,0,0,13.53,13.53h131.7a13.542,13.542,0,0,0,13.53-13.53V13.53A13.509,13.509,0,0,0,145.265,0Zm8.374,112.312a8.4,8.4,0,0,1-8.413,8.413H13.53a8.4,8.4,0,0,1-8.413-8.413V49.042H153.639v63.27Zm0-68.426H5.156V27.1H153.678l-.039,16.787Zm0-21.943H5.156V13.53a8.4,8.4,0,0,1,8.413-8.413h131.7a8.4,8.4,0,0,1,8.413,8.413v8.413Zm0,0"/>
      <path id="Path_64" data-name="Path 64" class="cls-1" d="M74.783,84.9H30.859a2.559,2.559,0,1,0,0,5.117H74.744A2.556,2.556,0,0,0,77.3,87.459a2.523,2.523,0,0,0-2.52-2.559Zm0,0" transform="translate(-17.329 -51.986)"/>
      <path id="Path_65" data-name="Path 65" class="cls-1" d="M183.43,84.9H172.459a2.559,2.559,0,0,0,0,5.117H183.43a2.559,2.559,0,1,0,0-5.117Zm0,0" transform="translate(-104.033 -51.986)"/>
      <path id="Path_66" data-name="Path 66" class="cls-1" d="M240.03,84.9H229.059a2.559,2.559,0,1,0,0,5.117H240.03a2.559,2.559,0,0,0,0-5.117Zm0,0" transform="translate(-138.69 -51.986)"/>
      <path id="Path_67" data-name="Path 67" class="cls-1" d="M296.63,84.9H285.659a2.559,2.559,0,1,0,0,5.117H296.63a2.559,2.559,0,0,0,0-5.117Zm0,0" transform="translate(-173.347 -51.986)"/>
      <path id="Path_68" data-name="Path 68" class="cls-1" d="M353.33,84.9H342.359a2.559,2.559,0,0,0,0,5.117H353.33a2.559,2.559,0,0,0,0-5.117Zm0,0" transform="translate(-208.065 -51.986)"/>
      <path id="Path_69" data-name="Path 69" class="cls-1" d="M40.711,28.3H37.959a2.559,2.559,0,1,0,0,5.117h2.753a2.559,2.559,0,1,0,0-5.117Zm0,0" transform="translate(-21.676 -17.329)"/>
      <path id="Path_70" data-name="Path 70" class="cls-1" d="M69.011,28.3H66.259a2.559,2.559,0,1,0,0,5.117h2.753a2.559,2.559,0,1,0,0-5.117Zm0,0" transform="translate(-39.005 -17.329)"/>
      <path id="Path_71" data-name="Path 71" class="cls-1" d="M97.311,28.3H94.559a2.559,2.559,0,1,0,0,5.117h2.753a2.559,2.559,0,1,0,0-5.117Zm0,0" transform="translate(-56.333 -17.329)"/>
      <path id="Path_72" data-name="Path 72" class="cls-1" d="M85.755,141.5h-54.9a2.556,2.556,0,0,0-2.559,2.559v54.857a2.556,2.556,0,0,0,2.559,2.559H85.716a2.556,2.556,0,0,0,2.559-2.559V144.1a2.509,2.509,0,0,0-2.52-2.6Zm-6.2,5.156L58.307,167.9,37.1,146.656Zm-46.1,3.644,21.206,21.245L33.417,192.791V150.3ZM37.1,196.4l21.245-21.245L79.591,196.4Zm46.1-3.644L61.951,171.545,83.2,150.3Zm0,0" transform="translate(-17.329 -86.643)"/>
      <path id="Path_73" data-name="Path 73" class="cls-1" d="M327.307,141.5H299.859a2.556,2.556,0,0,0-2.559,2.559v54.857a2.556,2.556,0,0,0,2.559,2.559h27.448a2.556,2.556,0,0,0,2.559-2.559V144.1a2.59,2.59,0,0,0-2.559-2.6Zm-4.187,5.156-9.576,19.113-9.576-19.113Zm-20.7,8.335,8.258,16.554L302.417,188.1Zm1.589,41.4,9.576-19.113,9.576,19.113Zm20.7-8.335-8.258-16.515,8.258-16.554Zm0,0" transform="translate(-182.042 -86.643)"/>
      <path id="Path_74" data-name="Path 74" class="cls-1" d="M228.207,141.5H200.759a2.556,2.556,0,0,0-2.559,2.559v54.857a2.556,2.556,0,0,0,2.559,2.559h27.448a2.556,2.556,0,0,0,2.559-2.559V144.1a2.59,2.59,0,0,0-2.559-2.6Zm-4.187,5.156-9.537,19.113-9.576-19.113Zm-20.7,8.335,8.258,16.554L203.317,188.1Zm1.59,41.4,9.576-19.113L224.02,196.4Zm20.7-8.335-8.258-16.515,8.258-16.554Zm0,0" transform="translate(-121.361 -86.643)"/>
    </g>
    <g id="Rectangle_40" data-name="Rectangle 40" class="cls-2" transform="translate(0 0)">
      <rect class="cls-3" width="192.854" height="192.854"/>
      <rect class="cls-4" x="0.5" y="0.5" width="191.854" height="191.854"/>
    </g>
  </g>
</svg>
