<svg xmlns="http://www.w3.org/2000/svg" viewBox="906.146 -495 192.854 192.854">
  <defs>
    <style>
      .cls-1 {
        fill: #fff;
      }

      .cls-2, .cls-4 {
        fill: none;
      }

      .cls-2 {
        stroke: #95989a;
        opacity: 0;
      }

      .cls-3 {
        stroke: none;
      }
    </style>
  </defs>
  <g id="Group_59" data-name="Group 59" transform="translate(906.146 -495)">
    <g id="Group_11" data-name="Group 11" transform="translate(16.875 33.749)">
      <g id="Group_6" data-name="Group 6">
        <path id="Path_46" data-name="Path 46" class="cls-1" d="M145.265,0H13.53A13.567,13.567,0,0,0,0,13.53v98.782a13.542,13.542,0,0,0,13.53,13.53h131.7a13.542,13.542,0,0,0,13.53-13.53V13.53A13.509,13.509,0,0,0,145.265,0Zm8.374,112.312a8.4,8.4,0,0,1-8.413,8.413H13.53a8.4,8.4,0,0,1-8.413-8.413V27.1H153.639v85.213Zm0-90.369H5.156V13.53a8.4,8.4,0,0,1,8.413-8.413h131.7a8.43,8.43,0,0,1,8.413,8.413v8.413Zm0,0"/>
        <path id="Path_47" data-name="Path 47" class="cls-1" d="M40.711,28.3H37.959a2.559,2.559,0,0,0,0,5.117h2.753a2.559,2.559,0,0,0,0-5.117Zm0,0" transform="translate(-21.676 -17.329)"/>
        <path id="Path_48" data-name="Path 48" class="cls-1" d="M69.011,28.3H66.259a2.559,2.559,0,1,0,0,5.117h2.753a2.559,2.559,0,1,0,0-5.117Zm0,0" transform="translate(-39.005 -17.329)"/>
        <path id="Path_49" data-name="Path 49" class="cls-1" d="M97.311,28.3H94.559a2.559,2.559,0,1,0,0,5.117h2.753a2.559,2.559,0,0,0,0-5.117Zm0,0" transform="translate(-56.333 -17.329)"/>
        <path id="Path_50" data-name="Path 50" class="cls-1" d="M162.593,84.9H30.859A2.556,2.556,0,0,0,28.3,87.459v60.362a2.556,2.556,0,0,0,2.559,2.559h131.7a2.556,2.556,0,0,0,2.559-2.559V87.5a2.533,2.533,0,0,0-2.52-2.6ZM160,145.262H33.456V90.056H160Zm0,0" transform="translate(-17.329 -51.986)"/>
        <path id="Path_51" data-name="Path 51" class="cls-1" d="M162.593,267.305H57.725a8.05,8.05,0,0,0-15.275,0H30.859a2.559,2.559,0,1,0,0,5.117H42.412a8.05,8.05,0,0,0,15.275,0H162.555a2.559,2.559,0,0,0,.039-5.117ZM50.088,272.81A2.908,2.908,0,1,1,53,269.9a2.929,2.929,0,0,1-2.908,2.908Zm0,0" transform="translate(-17.329 -160.305)"/>
        <path id="Path_52" data-name="Path 52" class="cls-1" d="M199.38,137.705l-21.71-11.824a5.427,5.427,0,0,0-5.273.078,5.271,5.271,0,0,0-2.6,4.575v23.687a5.29,5.29,0,0,0,5.311,5.311,5.583,5.583,0,0,0,2.559-.659l21.71-11.824a5.287,5.287,0,0,0,2.753-4.652,5.228,5.228,0,0,0-2.753-4.691Zm-2.442,4.807-21.71,11.824c-.039,0-.078.039-.155,0a.155.155,0,0,1-.078-.155V130.494c0-.039,0-.078.078-.155a.12.12,0,0,1,.078-.039c.039,0,.078,0,.078.039l21.71,11.824c.039.039.078.039.078.155,0,.155-.039.155-.078.194Zm0,0" transform="translate(-103.971 -76.684)"/>
      </g>
    </g>
    <g id="Rectangle_44" data-name="Rectangle 44" class="cls-2" transform="translate(0 0)">
      <rect class="cls-3" width="192.854" height="192.854"/>
      <rect class="cls-4" x="0.5" y="0.5" width="191.854" height="191.854"/>
    </g>
  </g>
</svg>
