<svg xmlns="http://www.w3.org/2000/svg" viewBox="284.191 -495 192.854 192.854">
  <defs>
    <style>
      .cls-1 {
        fill: #fff;
      }

      .cls-2, .cls-4 {
        fill: none;
      }

      .cls-2 {
        stroke: #95989a;
        opacity: 0;
      }

      .cls-3 {
        stroke: none;
      }
    </style>
  </defs>
  <g id="Group_58" data-name="Group 58" transform="translate(284.191 -495)">
    <g id="Group_7" data-name="Group 7" transform="translate(45.803 26.517)">
      <path id="Path_53" data-name="Path 53" class="cls-1" d="M91.547,58.772a12.215,12.215,0,0,0-9.3,3.077,11.023,11.023,0,0,0-.9.9,12.023,12.023,0,0,0-9.4-6.43,12.215,12.215,0,0,0-9.3,3.077c-.311.277-.588.588-.9.9a12.15,12.15,0,0,0-7.882-6.188A31.623,31.623,0,1,0,0,31.668,31.831,31.831,0,0,0,19.568,60.95V74.537l-8.816,6.292A14.383,14.383,0,0,0,5.428,97.216l8.678,26.067a26.722,26.722,0,0,0,25.376,18.289H75.713a26.779,26.779,0,0,0,26.759-26.759v-43.6A12.423,12.423,0,0,0,91.547,58.772ZM4.6,31.668A27.07,27.07,0,1,1,43.768,55.9V49.922a21.884,21.884,0,1,0-24.2,0V55.9A27.236,27.236,0,0,1,4.6,31.668ZM32.843,19.637a12.215,12.215,0,0,0-9.3,3.077A12.039,12.039,0,0,0,19.6,31.668V44.01a17.286,17.286,0,1,1,24.2,0V32.083c-.069-6.4-4.84-11.858-10.959-12.446ZM75.713,137.009h-36.2A22.078,22.078,0,0,1,18.5,121.832L9.784,95.764a9.889,9.889,0,0,1,3.665-11.236L19.6,80.138v20.017a2.282,2.282,0,1,0,4.563,0V31.668a7.49,7.49,0,0,1,2.455-5.532,7.369,7.369,0,0,1,5.774-1.9,7.791,7.791,0,0,1,6.742,7.882v48.5a2.282,2.282,0,1,0,4.563,0V65.929A7.49,7.49,0,0,1,46.154,60.4a7.369,7.369,0,0,1,5.774-1.9,7.791,7.791,0,0,1,6.742,7.882v16.7a2.282,2.282,0,0,0,4.564,0V68.383a7.49,7.49,0,0,1,2.455-5.532,7.369,7.369,0,0,1,5.774-1.9A7.791,7.791,0,0,1,78.2,68.833v16.7a2.282,2.282,0,0,0,4.564,0V70.838a7.49,7.49,0,0,1,2.455-5.532,7.369,7.369,0,0,1,5.774-1.9,7.791,7.791,0,0,1,6.742,7.882v43.63a21.963,21.963,0,0,1-22.022,22.091Zm0,0" transform="translate(0)"/>
    </g>
    <g id="Rectangle_43" data-name="Rectangle 43" class="cls-2" transform="translate(0 0)">
      <rect class="cls-3" width="192.854" height="192.854"/>
      <rect class="cls-4" x="0.5" y="0.5" width="191.854" height="191.854"/>
    </g>
  </g>
</svg>
