<svg xmlns="http://www.w3.org/2000/svg" viewBox="-340.174 -495 192.854 192.854">
  <defs>
    <style>
      .cls-1 {
        fill: #fff;
      }

      .cls-2, .cls-4 {
        fill: none;
      }

      .cls-2 {
        stroke: #95989a;
        opacity: 0;
      }

      .cls-3 {
        stroke: none;
      }
    </style>
  </defs>
  <g id="Group_57" data-name="Group 57" transform="translate(-340.174 -495)">
    <g id="Group_8" data-name="Group 8" transform="translate(16.875 48.214)">
      <path id="Path_54" data-name="Path 54" class="cls-1" d="M89.52,92.4H85.794L48.389,1.575a2.53,2.53,0,0,0-4.685,0L6.26,92.4H2.535a2.535,2.535,0,0,0,0,5.069H13.4a2.535,2.535,0,0,0,0-5.069H11.79l9.1-22.082H57.606l9.1,22.082H65.095a2.535,2.535,0,0,0,0,5.069H89.558a2.532,2.532,0,0,0,2.535-2.535A2.591,2.591,0,0,0,89.52,92.4ZM22.966,65.248,39.249,25.731,55.494,65.21H22.966ZM72.2,92.4,41.975,19.048l4.032-9.793L80.264,92.4Zm0,0"/>
      <path id="Path_55" data-name="Path 55" class="cls-1" d="M307.341,149.068h-2.727a2.9,2.9,0,0,1-2.88-2.88v-32.6A21.6,21.6,0,0,0,280.151,92H269.283A21.6,21.6,0,0,0,247.7,113.583a2.532,2.532,0,0,0,2.535,2.535H261.1a2.532,2.532,0,0,0,2.535-2.535A16.5,16.5,0,0,1,274.7,98.029a16.548,16.548,0,0,1,11.06,15.554v3.648a81.1,81.1,0,0,1-13.365,3.034c-7.911,1.306-15.362,2.5-20.585,8.871-3.956,4.839-4.954,10.984-2.573,16.014,1.267,2.727,5.53,9.025,17.32,9.025h5.453a29.819,29.819,0,0,0,14.747-4.109,8.012,8.012,0,0,0,6.989,4.109h13.6a2.532,2.532,0,0,0,2.535-2.535,2.565,2.565,0,0,0-2.535-2.573ZM258.722,111.01H253a16.5,16.5,0,0,1,12.827-13.557,21.716,21.716,0,0,0-7.1,13.557Zm4.109,18.05a16.389,16.389,0,0,0-2.842,17.32,17.981,17.981,0,0,0,1.152,2.074c-3.495-.922-6.068-2.8-7.3-5.453-1.575-3.3-.845-7.258,1.882-10.6,2.458-2.957,5.607-4.493,9.371-5.492a14.924,14.924,0,0,0-2.266,2.151Zm22.927,15.707c-4.954,2.957-9.255,4.3-13.749,4.3a7.64,7.64,0,0,1-7.335-4.8,11.18,11.18,0,0,1,1.959-11.828c4.263-4.724,12.212-7.45,19.164-9.524v21.852Zm7.988,4.3a2.9,2.9,0,0,1-2.88-2.88v-32.6a21.509,21.509,0,0,0-7.258-16.13,16.552,16.552,0,0,1,13.019,16.13v32.6a7.842,7.842,0,0,0,.538,2.88Zm0,0" transform="translate(-152.573 -56.668)"/>
    </g>
    <g id="Rectangle_42" data-name="Rectangle 42" class="cls-2" transform="translate(0 0)">
      <rect class="cls-3" width="192.854" height="192.854"/>
      <rect class="cls-4" x="0.5" y="0.5" width="191.854" height="191.854"/>
    </g>
  </g>
</svg>
