<svg xmlns="http://www.w3.org/2000/svg" viewBox="-962.129 -495 192.854 192.854">
  <defs>
    <style>
      .cls-1 {
        fill: #fff;
      }

      .cls-2, .cls-4 {
        fill: none;
      }

      .cls-2 {
        stroke: #95989a;
        opacity: 0;
      }

      .cls-3 {
        stroke: none;
      }
    </style>
  </defs>
  <g id="Group_56" data-name="Group 56" transform="translate(-962.129 -495)">
    <g id="Group_9" data-name="Group 9" transform="translate(16.875 33.749)">
      <path id="Path_56" data-name="Path 56" class="cls-1" d="M145.265,0H13.53A13.567,13.567,0,0,0,0,13.53v98.782a13.542,13.542,0,0,0,13.53,13.53h131.7a13.542,13.542,0,0,0,13.53-13.53V13.53A13.509,13.509,0,0,0,145.265,0Zm8.374,112.312a8.4,8.4,0,0,1-8.413,8.413H13.53a8.4,8.4,0,0,1-8.413-8.413V27.1H153.639v85.213Zm0-90.369H5.156V13.53a8.4,8.4,0,0,1,8.413-8.413h131.7a8.43,8.43,0,0,1,8.413,8.413v8.413Zm0,0"/>
      <path id="Path_57" data-name="Path 57" class="cls-1" d="M40.711,28.3H37.959a2.559,2.559,0,1,0,0,5.117h2.753a2.559,2.559,0,1,0,0-5.117Zm0,0" transform="translate(-21.676 -17.329)"/>
      <path id="Path_58" data-name="Path 58" class="cls-1" d="M69.011,28.3H66.259a2.559,2.559,0,1,0,0,5.117h2.753a2.559,2.559,0,1,0,0-5.117Zm0,0" transform="translate(-39.005 -17.329)"/>
      <path id="Path_59" data-name="Path 59" class="cls-1" d="M97.311,28.3H94.559a2.559,2.559,0,1,0,0,5.117h2.753a2.559,2.559,0,1,0,0-5.117Zm0,0" transform="translate(-56.333 -17.329)"/>
      <path id="Path_60" data-name="Path 60" class="cls-1" d="M98.04,151.885l17.717-20.237a2.582,2.582,0,1,0-3.877-3.412L92.69,150.179a2.543,2.543,0,0,0,0,3.373l19.19,21.943a2.543,2.543,0,0,0,1.938.892,2.648,2.648,0,0,0,1.706-.62,2.578,2.578,0,0,0,.233-3.644Zm0,0" transform="translate(-56.364 -77.992)"/>
      <path id="Path_61" data-name="Path 61" class="cls-1" d="M278.55,150.258l-19.19-21.943a2.582,2.582,0,1,0-3.877,3.412L273.2,151.964,255.483,172.2a2.616,2.616,0,0,0,.233,3.644,2.575,2.575,0,0,0,1.706.62,2.6,2.6,0,0,0,1.938-.892l19.19-21.943a2.634,2.634,0,0,0,0-3.373Zm0,0" transform="translate(-156.042 -78.033)"/>
      <path id="Path_62" data-name="Path 62" class="cls-1" d="M195.4,120.489a2.6,2.6,0,0,0-3.373,1.357l-21.943,52.143a2.6,2.6,0,0,0,1.357,3.373,2.23,2.23,0,0,0,1.008.194,2.548,2.548,0,0,0,2.365-1.589l21.943-52.143a2.546,2.546,0,0,0-1.357-3.334Zm0,0" transform="translate(-104.028 -73.657)"/>
    </g>
    <g id="Rectangle_41" data-name="Rectangle 41" class="cls-2" transform="translate(0 0)">
      <rect class="cls-3" width="192.854" height="192.854"/>
      <rect class="cls-4" x="0.5" y="0.5" width="191.854" height="191.854"/>
    </g>
  </g>
</svg>
